<svg width="20" height="20" viewBox="0 0 20 20" fill="none" xmlns="http://www.w3.org/2000/svg">
<path fill-rule="evenodd" clip-rule="evenodd" d="M16.6309 10.7135L16.5804 10.7641L13.3246 12.7712C13.1864 12.8565 13.0199 12.8833 12.8619 12.8458C12.7039 12.8084 12.5672 12.7097 12.482 12.5714C12.3967 12.4332 12.3699 12.2667 12.4074 12.1087C12.4449 11.9507 12.5436 11.814 12.6818 11.7288L15.782 9.81746C15.785 9.80602 15.785 9.79398 15.782 9.78254L12.6818 7.87124C12.6116 7.82991 12.5502 7.77498 12.5015 7.70966C12.4527 7.64434 12.4175 7.56994 12.3979 7.49083C12.3782 7.41172 12.3746 7.32949 12.3871 7.24895C12.3997 7.16841 12.4282 7.09119 12.471 7.0218C12.5138 6.95242 12.57 6.89228 12.6363 6.8449C12.7026 6.79751 12.7777 6.76385 12.8572 6.74587C12.9367 6.72789 13.019 6.72596 13.0993 6.7402C13.1795 6.75443 13.2562 6.78454 13.3246 6.82876L16.5804 8.83592L16.6309 8.88646C16.8727 9.129 17.0085 9.45751 17.0085 9.8C17.0085 10.1425 16.8727 10.471 16.6309 10.7135ZM8.38145 15.2249C8.35354 15.3011 8.31076 15.371 8.2556 15.4305C8.20044 15.4901 8.134 15.538 8.06014 15.5717C7.98629 15.6053 7.90648 15.6239 7.82537 15.6264C7.74425 15.629 7.66344 15.6153 7.58764 15.5864C7.51183 15.5574 7.44254 15.5136 7.38379 15.4577C7.32504 15.4017 7.278 15.3346 7.2454 15.2603C7.2128 15.1859 7.1953 15.1059 7.19391 15.0247C7.19252 14.9436 7.20727 14.863 7.2373 14.7876L11.2186 4.37509C11.2465 4.29888 11.2892 4.22899 11.3444 4.16946C11.3996 4.10993 11.466 4.06196 11.5399 4.02833C11.6137 3.9947 11.6935 3.97608 11.7746 3.97356C11.8557 3.97103 11.9366 3.98465 12.0124 4.01363C12.0882 4.0426 12.1575 4.08636 12.2162 4.14234C12.275 4.19832 12.322 4.26543 12.3546 4.33975C12.3872 4.41407 12.4047 4.49412 12.4061 4.57527C12.4075 4.65641 12.3927 4.73702 12.3627 4.81241L8.38145 15.2249ZM6.59632 12.8625C6.48668 12.8625 6.37551 12.8331 6.27537 12.7712L3.01962 10.7641L2.96909 10.7135C2.72729 10.471 2.5915 10.1425 2.5915 9.8C2.5915 9.45751 2.72729 9.129 2.96909 8.88646L3.01962 8.83592L6.27537 6.82876C6.41361 6.74352 6.58005 6.71668 6.73808 6.75416C6.8961 6.79163 7.03277 6.89035 7.11802 7.02859C7.20326 7.16683 7.23009 7.33327 7.19262 7.4913C7.15514 7.64933 7.05643 7.78599 6.91819 7.87124L3.81802 9.78254C3.81495 9.79398 3.81495 9.80602 3.81802 9.81746L6.91819 11.7288C7.03164 11.7988 7.11915 11.9039 7.16743 12.0281C7.21572 12.1524 7.22215 12.289 7.18574 12.4173C7.14933 12.5455 7.07207 12.6584 6.9657 12.7387C6.85932 12.8191 6.72963 12.8625 6.59632 12.8625ZM9.8 0C4.38764 0 0 4.38764 0 9.8C0 15.2124 4.38764 19.6 9.8 19.6C15.2124 19.6 19.6 15.2124 19.6 9.8C19.6 4.38764 15.2124 0 9.8 0Z" fill="#B2D3E8"/>
</svg>
