<svg width="552" height="552" viewBox="0 0 552 552" fill="none" xmlns="http://www.w3.org/2000/svg">
<rect width="552" height="552" fill="#B2D3E8"/>
<path d="M361.334 361.27C408.438 361.27 446.624 323.084 446.624 275.979C446.624 228.874 408.438 190.688 361.334 190.688C314.229 190.688 276.043 228.874 276.043 275.979C276.043 323.084 314.229 361.27 361.334 361.27Z" fill="#32171E"/>
<path d="M105.333 446.709C105.333 493.899 143.541 532 190.645 532C237.749 532 275.936 493.792 275.936 446.709V190.688H361.333L361.354 190.709C408.48 190.709 446.666 152.48 446.666 105.397C446.666 58.3147 408.458 20 361.354 20H190.645C143.52 20 105.333 58.208 105.333 105.291C105.333 152.373 143.541 190.581 190.645 190.581C143.52 190.709 105.333 228.896 105.333 276C105.333 323.104 143.541 361.291 190.645 361.291C143.52 361.291 105.333 399.499 105.333 446.709Z" fill="#32171E"/>
</svg>
