<svg width="20" height="21" viewBox="0 0 20 21" fill="none" xmlns="http://www.w3.org/2000/svg">
<path d="M0.0390625 0.40625V20.0121H19.6449V0.40625H0.0390625ZM10.2717 17.178C9.98294 17.765 9.43103 18.1509 8.79203 18.3369C7.80973 18.5625 6.87066 18.434 6.17153 18.0143C5.70356 17.7274 5.33833 17.2857 5.09088 16.777C5.58829 16.4732 6.08445 16.1675 6.58186 15.8636C6.59502 15.8693 6.63386 15.9401 6.68648 16.0315C6.8763 16.3504 7.04044 16.5759 7.36307 16.7338C7.68006 16.8416 8.37481 16.9111 8.64356 16.3535C8.80769 16.0704 8.75507 15.1407 8.75507 14.1327C8.75507 12.5484 8.76259 10.9904 8.76259 9.38663H10.5963C10.5963 11.0706 10.6056 12.7589 10.5963 14.4403C10.6 15.4709 10.6896 16.408 10.2717 17.178ZM17.8795 16.6599C17.2424 18.8406 13.6879 18.9114 12.2683 17.4705C11.9682 17.1316 11.7803 16.9543 11.6011 16.5628C12.356 16.1286 12.356 16.1286 13.0902 15.7039C13.4893 16.3172 13.8583 16.6542 14.5217 16.7921C15.4219 16.9017 16.3278 16.5929 16.1248 15.6369C15.9162 14.8557 14.2817 14.6658 13.1691 13.8308C12.0396 13.0721 11.7753 11.2291 12.7031 10.176C13.0125 9.78631 13.54 9.49563 14.0932 9.35593L14.6708 9.28138C15.7796 9.25883 16.4731 9.55139 16.9818 10.1202C17.1234 10.2637 17.2387 10.4184 17.4554 10.7542C16.8647 11.1307 16.8665 11.1269 16.0202 11.6751C15.8391 11.2854 15.5397 11.0411 15.2227 10.9352C14.7309 10.7861 14.1101 10.9484 13.9817 11.4684C13.9372 11.6287 13.9466 11.7778 14.0174 12.0422C14.2166 12.497 14.8857 12.6944 15.4858 12.97C17.2136 13.671 17.7968 14.4215 17.9403 15.3161C18.0781 16.086 17.9065 16.5853 17.8808 16.6599H17.8795Z" fill="#B2D3E8"/>
</svg>
