<svg width="20" height="20" viewBox="0 0 20 20" fill="none" xmlns="http://www.w3.org/2000/svg">
<path d="M9.15816 0.00527443C9.11601 0.00910573 8.9819 0.0225153 8.86119 0.0320936C6.07734 0.283044 3.46976 1.78492 1.81822 4.09328C0.898573 5.37676 0.310381 6.83266 0.0881329 8.37476C0.00957967 8.91306 0 9.07206 0 9.80192C0 10.5318 0.00957967 10.6908 0.0881329 11.2291C0.620762 14.909 3.23984 18.0009 6.79198 19.1465C7.42807 19.3514 8.09865 19.4913 8.86119 19.5756C9.15816 19.6081 10.4418 19.6081 10.7388 19.5756C12.0551 19.43 13.1701 19.1043 14.2699 18.543C14.4385 18.4568 14.471 18.4338 14.4481 18.4147C14.4327 18.4032 13.7143 17.4396 12.8521 16.2749L11.2848 14.1581L9.32102 11.2521C8.24043 9.65441 7.35144 8.34794 7.34377 8.34794C7.33611 8.34602 7.32845 9.63717 7.32461 11.2138C7.31887 13.9742 7.31695 14.0853 7.28246 14.1504C7.23265 14.2443 7.19433 14.2826 7.11386 14.3248C7.05255 14.3554 6.99891 14.3612 6.7096 14.3612H6.37814L6.29001 14.3056C6.23253 14.2692 6.19038 14.2213 6.16164 14.1658L6.12141 14.0796L6.12524 10.2387L6.13099 6.39589L6.19038 6.32118C6.22104 6.28095 6.28618 6.22923 6.33216 6.20432C6.41071 6.16601 6.44137 6.16218 6.77283 6.16218C7.16368 6.16218 7.22882 6.17751 7.33036 6.28861C7.3591 6.31926 8.42244 7.92075 9.69462 9.84981C10.9668 11.7789 12.7065 14.4129 13.561 15.706L15.1129 18.0565L15.1914 18.0047C15.8869 17.5526 16.6226 16.909 17.2051 16.2385C18.4447 14.8152 19.2436 13.0796 19.5119 11.2291C19.5904 10.6908 19.6 10.5318 19.6 9.80192C19.6 9.07206 19.5904 8.91306 19.5119 8.37476C18.9792 4.69479 16.3602 1.60293 12.808 0.457368C12.1815 0.254309 11.5148 0.114467 10.7675 0.0301779C10.5836 0.0110214 9.31719 -0.0100508 9.15816 0.00527443ZM13.1701 5.9323C13.2621 5.97828 13.3368 6.0664 13.3636 6.15835C13.379 6.20816 13.3828 7.27326 13.379 9.67357L13.3732 13.1179L12.7659 12.1869L12.1566 11.2559V8.75214C12.1566 7.13342 12.1643 6.22348 12.1758 6.17942C12.2064 6.07214 12.2735 5.98786 12.3654 5.93805C12.444 5.89782 12.4727 5.89399 12.7735 5.89399C13.0571 5.89399 13.1069 5.89782 13.1701 5.9323Z" fill="#B2D3E8"/>
</svg>
